<svg width="1200" height="460" viewBox="0 0 1200 460" xmlns="http://www.w3.org/2000/svg">
<defs>
  <linearGradient id="bg" x1="0" y1="0" x2="1" y2="1">
    <stop offset="0" stop-color="#06020b"/><stop offset="0.48" stop-color="#160525"/><stop offset="1" stop-color="#05020a"/>
  </linearGradient>
  <radialGradient id="orb"><stop offset="0" stop-color="#c084fc" stop-opacity=".95"/><stop offset=".35" stop-color="#a855f7" stop-opacity=".45"/><stop offset="1" stop-color="#7e22ce" stop-opacity="0"/></radialGradient>
  <linearGradient id="line" x1="0" x2="1"><stop offset="0" stop-color="#7e22ce" stop-opacity="0"/><stop offset=".5" stop-color="#c084fc"/><stop offset="1" stop-color="#7e22ce" stop-opacity="0"/></linearGradient>
  <filter id="blur"><feGaussianBlur stdDeviation="22"/></filter>
  <filter id="soft"><feGaussianBlur stdDeviation="6"/></filter>
  <style>
    .name{font:700 58px Arial,sans-serif;fill:#fff;letter-spacing:5px}.role{font:500 21px Arial,sans-serif;fill:#e9d5ff;letter-spacing:1.5px}.small{font:500 14px monospace;fill:#c084fc}.tiny{font:500 11px monospace;fill:#8b5cf6}
  </style>
</defs>
<rect width="1200" height="460" rx="28" fill="url(#bg)"/>
<g opacity=".28">
 <path d="M0 70 H1200 M0 140 H1200 M0 210 H1200 M0 280 H1200 M0 350 H1200" stroke="#6d28d9"/>
 <path d="M120 0 V460 M240 0 V460 M360 0 V460 M480 0 V460 M600 0 V460 M720 0 V460 M840 0 V460 M960 0 V460 M1080 0 V460" stroke="#6d28d9"/>
</g>
<circle cx="190" cy="120" r="170" fill="url(#orb)" filter="url(#blur)"><animate attributeName="cx" values="190;260;190" dur="8s" repeatCount="indefinite"/></circle>
<circle cx="1010" cy="350" r="210" fill="url(#orb)" filter="url(#blur)"><animate attributeName="cy" values="350;270;350" dur="10s" repeatCount="indefinite"/></circle>
<ellipse cx="600" cy="255" rx="310" ry="95" fill="none" stroke="#a855f7" stroke-opacity=".23" stroke-width="2" transform="rotate(-8 600 255)"><animateTransform attributeName="transform" type="rotate" values="-8 600 255;8 600 255;-8 600 255" dur="12s" repeatCount="indefinite"/></ellipse>
<ellipse cx="600" cy="255" rx="245" ry="72" fill="none" stroke="#c084fc" stroke-opacity=".15" stroke-width="1" transform="rotate(18 600 255)"><animateTransform attributeName="transform" type="rotate" values="18 600 255;-18 600 255;18 600 255" dur="15s" repeatCount="indefinite"/></ellipse>
<circle cx="600" cy="255" r="34" fill="url(#orb)" filter="url(#soft)"><animate attributeName="r" values="26;42;26" dur="3s" repeatCount="indefinite"/></circle>
<g fill="#e9d5ff">
 <circle cx="98" cy="78" r="2"><animate attributeName="opacity" values=".2;1;.2" dur="2.7s" repeatCount="indefinite"/></circle>
 <circle cx="240" cy="330" r="2"><animate attributeName="opacity" values="1;.2;1" dur="3.2s" repeatCount="indefinite"/></circle>
 <circle cx="370" cy="92" r="1.5"><animate attributeName="opacity" values=".2;1;.2" dur="2.4s" repeatCount="indefinite"/></circle>
 <circle cx="860" cy="78" r="2"><animate attributeName="opacity" values="1;.2;1" dur="3.6s" repeatCount="indefinite"/></circle>
 <circle cx="1080" cy="120" r="1.5"><animate attributeName="opacity" values=".2;1;.2" dur="2.1s" repeatCount="indefinite"/></circle>
 <circle cx="1040" cy="390" r="2"><animate attributeName="opacity" values="1;.2;1" dur="4s" repeatCount="indefinite"/></circle>
</g>
<g class="small">
 <text x="54" y="52">AI_CORE::ONLINE</text><text x="1000" y="52">MODE::BUILD</text>
 <text x="45" y="410">python()</text><text x="190" y="410">git push</text><text x="960" y="410">model.fit()</text><text x="1060" y="410">&lt;/&gt;</text>
</g>
<g class="tiny">
 <text x="70" y="172">0101010011</text><text x="1030" y="170">01101010</text><text x="72" y="300">NEURAL_NODE</text><text x="972" y="300">DATA_STREAM</text>
</g>
<g text-anchor="middle">
 <text x="600" y="205" class="name">SHAMEEN KHAN</text>
 <text x="600" y="244" class="role">CSE (AI &amp; ML)  •  AI/ML  •  Full-Stack Development</text>
 <text x="600" y="282" class="role">Build ideas. Solve problems. Create something useful.</text>
</g>
<rect x="250" y="332" width="700" height="2" rx="1" fill="url(#line)"><animate attributeName="x" values="250;330;250" dur="4s" repeatCount="indefinite"/></rect>
</svg>
